<svg width="47" height="37" viewBox="0 0 47 37" fill="none" xmlns="http://www.w3.org/2000/svg">
<path d="M35.5084 14.0652H32.9786C32.2274 10.994 30.6752 8.20673 28.4985 6.0202C26.3217 3.83367 23.6076 2.33554 20.6646 1.69603C17.7216 1.05653 14.6677 1.30129 11.8499 2.40252C9.03203 3.50374 6.5633 5.41727 4.72418 7.92566C2.88507 10.4341 1.74931 13.4367 1.44596 16.5925C1.14262 19.7483 1.68385 22.9306 3.00817 25.7779C4.33248 28.6251 6.38677 31.0232 8.9376 32.6995C11.4884 34.3758 14.4335 35.2632 17.4382 35.2609H35.5084C38.1709 35.2609 40.7244 34.1443 42.607 32.1568C44.4897 30.1694 45.5474 27.4738 45.5474 24.6631C45.5474 21.8523 44.4897 19.1567 42.607 17.1693C40.7244 15.1818 38.1709 14.0652 35.5084 14.0652Z" stroke="white" stroke-width="2" stroke-linecap="round" stroke-linejoin="round"/>
</svg>
