<svg width="41" height="31" viewBox="0 0 41 31" fill="none" xmlns="http://www.w3.org/2000/svg">
<path d="M7.14376 15.6722L7.50631 22.6891L7.14376 30.0623C7.125 30.3321 7.00624 30.5372 6.86871 30.5372C6.73119 30.5372 6.60617 30.3321 6.60617 30.0623L6.25612 22.6891L6.60617 15.6722C6.60617 15.4347 6.72494 15.2188 6.86871 15.2188C7.00624 15.2188 7.125 15.4347 7.14376 15.6722ZM8.48147 10.7496C8.30644 10.7496 8.18767 10.987 8.16892 11.2893L7.85637 22.6891L8.16892 30.0623C8.18767 30.3645 8.30644 30.602 8.48147 30.602C8.63774 30.602 8.77526 30.3645 8.77526 30.0623L9.13782 22.6891L8.77526 11.2893C8.77526 10.987 8.63774 10.7496 8.48147 10.7496ZM10.0755 8.1479C9.88169 8.1479 9.74416 8.38539 9.72541 8.72004L9.45037 22.7539L9.72541 30.0731C9.74416 30.4077 9.88169 30.6452 10.0755 30.6452C10.2505 30.6452 10.4068 30.4077 10.4068 30.0731L10.7381 22.7539L10.4068 8.72004C10.4068 8.38539 10.2505 8.1479 10.0755 8.1479ZM0.630242 18.5761C0.542728 18.5761 0.492721 18.6949 0.473968 18.846L0.180172 22.6891L0.473968 26.4674C0.492721 26.6186 0.542728 26.7373 0.630242 26.7373C0.717756 26.7373 0.767764 26.6186 0.786516 26.4674L1.13657 22.6891L0.786516 18.846C0.767764 18.6949 0.717756 18.5761 0.630242 18.5761ZM2.10547 16.2119C2.01796 16.2119 1.9492 16.3307 1.9492 16.4818L1.54914 22.6891L1.9492 28.7452C1.9492 28.9288 2.01796 29.0475 2.10547 29.0475C2.19299 29.0475 2.26175 28.9288 2.2805 28.7776L2.73057 22.6891L2.2805 16.4818C2.26175 16.3307 2.19299 16.2119 2.10547 16.2119ZM3.68697 14.9813C3.5807 14.9813 3.49319 15.1324 3.48069 15.3375L3.11813 22.6891L3.48069 29.7924C3.49944 29.9759 3.58695 30.127 3.68697 30.127C3.79324 30.127 3.88075 29.9759 3.88075 29.7924L4.31207 22.6891L3.88075 15.3375C3.88075 15.1324 3.79324 14.9813 3.68697 14.9813ZM5.26847 14.7438C5.1497 14.7438 5.04343 14.8949 5.04343 15.1324L4.68087 22.6891L5.04343 30.0083C5.04343 30.2458 5.1497 30.3969 5.26847 30.3969C5.38723 30.3969 5.4935 30.2458 5.51225 30.0083L5.91232 22.6891L5.51225 15.1324C5.4935 14.8949 5.38723 14.7438 5.26847 14.7438ZM20.3583 2.77186C20.2896 2.6855 20.1833 2.62073 20.0958 2.62073C19.9583 2.62073 19.8332 2.70709 19.7457 2.82584C19.627 3.00936 19.5519 3.27924 19.5394 3.54912V3.63548L19.3332 22.7107L19.4394 26.2191L19.5457 29.6412C19.5644 30.1486 19.8082 30.5696 20.102 30.5696C20.3958 30.5696 20.6396 30.1486 20.6396 29.6412L20.8834 22.7107L20.6396 3.54912C20.6146 3.22526 20.5146 2.923 20.3583 2.77186ZM18.6893 4.42354C18.6018 4.33717 18.5143 4.2724 18.4143 4.2724C18.3142 4.2724 18.2205 4.33717 18.1392 4.42354C18.0017 4.57467 17.9142 4.84455 17.9142 5.14682L17.8954 5.33034L17.7204 22.6891C17.7204 22.6891 17.7204 22.7215 17.9142 29.7708V29.8032C17.9142 29.9867 17.9517 30.1594 18.0205 30.3105C18.1267 30.5157 18.2642 30.6452 18.4205 30.6452C18.558 30.6452 18.6831 30.5265 18.7706 30.3753C18.8768 30.2242 18.9268 30.0191 18.9268 29.7708L18.9456 29.0475L19.1394 22.7215L18.9331 5.14682C18.9143 4.84455 18.8268 4.57467 18.6893 4.42354ZM11.7257 6.85247C11.5319 6.85247 11.3632 7.15473 11.3632 7.51098L11.0881 22.6891L11.3632 29.9435C11.3819 30.2997 11.5382 30.5696 11.7257 30.5696C11.932 30.5696 12.0883 30.2997 12.107 29.9435L12.4196 22.6891L12.107 7.51098C12.0945 7.15473 11.9383 6.85247 11.7257 6.85247ZM35.2731 13.6319C34.598 13.6319 33.9542 13.8694 33.3603 14.2904C32.9603 6.64736 29.2472 0.645197 24.7152 0.645197C23.6026 0.645197 22.5274 1.00144 21.571 1.65995C21.1897 1.89745 21.0834 2.13494 21.0834 2.65311V29.6089C21.0834 30.1486 21.3272 30.5372 21.621 30.602H35.2669C37.9736 30.602 40.1802 26.8237 40.1802 22.1493C40.1864 17.4426 37.9798 13.6319 35.2731 13.6319ZM16.7265 7.12235C16.464 7.12235 16.2577 7.47859 16.2389 7.96438L16.0326 22.7215L16.2389 29.8032C16.2577 30.2566 16.464 30.6128 16.7265 30.6128C16.989 30.6128 17.1953 30.2566 17.1953 29.8032L17.4391 22.7215L17.1953 7.96438C17.1766 7.47859 16.989 7.12235 16.7265 7.12235ZM13.376 6.28032C13.1697 6.28032 12.9759 6.61497 12.9759 7.0036L12.7321 22.6891L12.9759 29.9111C12.9947 30.2998 13.1697 30.602 13.376 30.602C13.601 30.602 13.776 30.2998 13.7948 29.9111L14.0698 22.6891L13.7948 7.0036C13.776 6.61497 13.601 6.28032 13.376 6.28032ZM15.045 6.64736C14.8012 6.64736 14.6137 6.98201 14.6137 7.39223L14.3699 22.6891L14.6137 29.8571C14.6324 30.2782 14.8075 30.602 15.045 30.602C15.2825 30.602 15.4763 30.2674 15.4763 29.8571L15.7388 22.6891L15.4763 7.39223C15.4763 6.97121 15.2888 6.64736 15.045 6.64736Z" fill="white"/>
</svg>
