<svg width="47" height="50" viewBox="0 0 47 50" fill="none" xmlns="http://www.w3.org/2000/svg">
<path d="M18.1353 2.9246C18.6486 2.23116 19.2815 1.71878 19.9779 1.43301C20.6742 1.14724 21.4123 1.09694 22.1265 1.28657C22.8408 1.4762 23.5092 1.89989 24.0721 2.51998C24.6351 3.14007 25.0752 3.93734 25.3534 4.84093C25.6317 5.74451 25.7393 6.72641 25.6669 7.69933C25.5944 8.67226 25.3441 9.60607 24.9381 10.4178C24.5321 11.2294 23.9831 11.8938 23.3398 12.3519C22.6966 12.81 21.979 13.0475 21.2509 13.0434H1.36389M24.7643 46.9014C25.2776 47.5949 25.9105 48.1073 26.6069 48.393C27.3032 48.6788 28.0413 48.7291 28.7556 48.5395C29.4698 48.3498 30.1382 47.9261 30.7011 47.3061C31.2641 46.686 31.7042 45.8887 31.9824 44.9851C32.2607 44.0815 32.3683 43.0996 32.2959 42.1267C32.2234 41.1538 31.9731 40.22 31.5671 39.4083C31.1611 38.5966 30.6121 37.9322 29.9688 37.4741C29.3256 37.016 28.608 36.7785 27.8799 36.7826H1.36389M36.122 12.2422C36.7647 11.3813 37.5554 10.7464 38.4243 10.3936C39.2932 10.0407 40.2134 9.98089 41.1036 10.2193C41.9939 10.4577 42.8266 10.9871 43.5282 11.7605C44.2298 12.534 44.7787 13.5277 45.1263 14.6538C45.4739 15.7799 45.6095 17.0037 45.5211 18.2169C45.4327 19.4302 45.1231 20.5954 44.6195 21.6097C44.116 22.624 43.4341 23.456 42.6341 24.0321C41.8342 24.6083 40.9408 24.9108 40.0331 24.913H1.36389" stroke="white" stroke-width="2" stroke-linecap="round" stroke-linejoin="round"/>
</svg>
